<svg xmlns="http://www.w3.org/2000/svg" viewBox="0 0 480 160" fill="none">
  <defs>
    <radialGradient id="lg1d" cx="40%" cy="35%" r="65%">
      <stop offset="0%" stop-color="#7ED968"></stop>
      <stop offset="100%" stop-color="#4AAE3C"></stop>
    </radialGradient>
    <radialGradient id="lg2d" cx="50%" cy="40%" r="60%">
      <stop offset="0%" stop-color="#B4EC74"></stop>
      <stop offset="100%" stop-color="#68C050"></stop>
    </radialGradient>
    <filter id="shd">
      <feDropShadow dx="0" dy="3" stdDeviation="5" flood-color="#000" flood-opacity="0.30"></feDropShadow>
    </filter>
  </defs>

  
  <rect width="480" height="160" rx="16" fill="#1C1008"></rect>

  
  <g transform="translate(20, 20) scale(0.6)">
    <path d="M100 170 C60 155,28 138,22 108 C14 72,36 44,62 36 C74 32,86 34,100 44 C114 34,126 32,138 36 C164 44,186 72,178 108 C172 138,140 155,100 170Z" fill="url(#lg1d)" filter="url(#shd)"></path>
    <path d="M100 154 C70 142,46 128,42 104 C36 78,54 58,74 52 C84 49,93 52,100 60 C107 52,116 49,126 52 C146 58,164 78,158 104 C154 128,130 142,100 154Z" fill="url(#lg2d)" opacity="0.35"></path>
    <path d="M100 130 C78 118,62 104,62 88 C62 76,72 68,84 68 C91 68,97 72,100 78 C103 72,109 68,116 68 C128 68,138 76,138 88 C138 104,122 118,100 130Z" fill="rgba(255,255,255,0.92)"></path>
    <line x1="100" y1="128" x2="100" y2="108" stroke="#5CB84A" stroke-width="3.5" stroke-linecap="round"></line>
    <path d="M100 118 C94 112,86 112,84 106 C86 100,94 102,100 108" fill="#6EC85A" opacity="0.9"></path>
    <path d="M100 118 C106 112,114 112,116 106 C114 100,106 102,100 108" fill="#6EC85A" opacity="0.9"></path>
    <circle cx="76" cy="88" r="5" fill="#5CB84A" opacity="0.6"></circle>
    <circle cx="124" cy="88" r="5" fill="#5CB84A" opacity="0.6"></circle>
  </g>

  
  <text x="152" y="96" font-family="Georgia, &#39;Times New Roman&#39;, serif" font-size="68" font-weight="700" fill="#C8E8A0" letter-spacing="-1">u</text>
  <text x="199" y="96" font-family="Georgia, &#39;Times New Roman&#39;, serif" font-size="68" font-weight="700" fill="#7ED968" letter-spacing="-1">Matter</text>
  <text x="153" y="118" font-family="&#39;Helvetica Neue&#39;, Arial, sans-serif" font-size="14" font-weight="500" fill="rgba(180,220,140,0.55)" letter-spacing="2.5">TÂM LÝ · CHỮA LÀNH · KẾT NỐI</text>
</svg>